<?xml version="1.0" encoding="UTF-8"?>
<svg id="Layer_2" data-name="Layer 2" xmlns="http://www.w3.org/2000/svg" viewBox="0 0 426.09 340.73">
  <defs>
    <style>
      .cls-1 {
        fill: #19dc6e;
        stroke-width: 0px;
      }
    </style>
  </defs>
  <path class="cls-1"
    d="m403.4,83.36c-8.81,6.03-21.01,9.73-36.18,10.39-31.61,1.39-63.48,1.61-95.15,2.07-49.73.73-99.47.96-149.21.69-19.16-.1-38.43-.29-57.25-3.01-28.19-4.08-60.06-13.96-61.42-38.97-.78-14.27,4.34-29.85,20.32-38C43.82,6.7,67.8,5.17,90.31,3.66,118.08,1.8,145.93.64,173.8.17c64.39-.95,128.5,2.06,192.47,7.57,11.58,1,23.67,2.22,33.18,7.34,12.08,6.5,17.62,18.08,19.57,29.25,2.88,16.51-2.77,30.25-15.62,39.04Z" />
  <path class="cls-1"
    d="m222.99,126.56c29.72.36,59.41,1.51,89.03,3.17,25.87,1.45,58.27.19,81.05,9.79,14.8,6.24,24.69,17.09,28.85,28.63,4.91,13.64,5.7,32.88-9.82,43.52-10.64,7.29-26.77,8.99-41.75,10-80.05,5.37-160.81,5.62-240.97,1.21-38.31-2.11-84.54-1.45-112.03-23.12-9.1-7.17-14.81-16.32-16.09-25.78-1.48-10.97,3.43-20.32,15.97-27.28,24.25-13.45,63.12-14.96,92.94-17.11,37.46-2.7,75.17-3.48,112.81-3.03Z" />
  <path class="cls-1"
    d="m258.58,340.51c-4.62.03-9.24.05-13.85.08-42.81.3-85.67.24-128.41-1.67-28.55-1.27-66.33-1.74-91.35-12.16-23.97-9.99-31.2-30.5-19.43-47.47,22.52-32.49,94.87-21.98,136.34-21.69,66.67.47,133.39-1.01,199.96-1.01,24.19,0,53.41,5.21,70.38,17.58,20.24,14.77,18.34,38.29-5.83,50.36-11.73,5.86-26.1,8.65-40.34,10.61-35.36,4.86-71.51,5.16-107.47,5.36Z" />
</svg>