<?xml version="1.0" encoding="UTF-8"?>
<svg id="Layer_2" data-name="Layer 2" xmlns="http://www.w3.org/2000/svg" viewBox="0 0 340.91 426.07">
  <defs>
    <style>
      .cls-1 {
        fill: #8befb6;
        stroke-width: 0px;
      }
    </style>
  </defs>
  <path class="cls-1"
    d="m256.26,404.69c-5.97-8.85-9.6-21.07-10.17-36.24-1.2-31.62-1.22-63.49-1.49-95.17-.43-49.73-.35-99.47.22-149.21.22-19.16.52-38.43,3.36-57.23,4.25-28.16,14.32-59.97,39.35-61.18,14.28-.69,29.82,4.53,37.87,20.55,9.73,19.37,11.11,43.36,12.48,65.89,1.69,27.78,2.69,55.63,2.98,83.51.56,64.39-2.84,128.49-8.74,192.42-1.07,11.57-2.37,23.66-7.54,33.14-6.57,12.04-18.19,17.51-29.36,19.39-16.52,2.78-30.23-2.95-38.94-15.86Z" />
  <path class="cls-1"
    d="m214.17,224.02c-.54,29.72-1.87,59.4-3.71,89.01-1.61,25.86-.55,58.27-10.29,80.99-6.33,14.76-17.24,24.59-28.81,28.68-13.67,4.83-32.91,5.5-43.46-10.09-7.22-10.68-8.83-26.82-9.74-41.81-4.88-80.08-4.64-160.84.26-240.98,2.34-38.3,1.97-84.53,23.81-111.89,7.23-9.06,16.41-14.71,25.88-15.94,10.97-1.42,20.3,3.55,27.18,16.14,13.3,24.33,14.57,63.21,16.54,93.05,2.47,37.47,3.03,75.19,2.34,112.83Z" />
  <path class="cls-1"
    d="m0,258.3c0-4.62,0-9.24,0-13.85-.04-42.81.29-85.67,2.45-128.4,1.45-28.54,2.14-66.32,12.72-91.27C25.31.87,45.86-6.23,62.76,5.64c32.36,22.72,21.4,95,20.85,136.47-.88,66.66.19,133.39-.21,199.96-.15,24.19-5.53,53.38-18.01,70.27-14.89,20.15-38.4,18.11-50.32-6.13-5.79-11.76-8.49-26.16-10.36-40.41C.07,330.41-.01,294.27,0,258.3Z" />
</svg>